<mxfile host="app.diagrams.net" modified="2024-02-15T11:54:39.968Z" agent="Mozilla/5.0 (Windows NT 10.0; Win64; x64) AppleWebKit/537.36 (KHTML, like Gecko) Chrome/121.0.0.0 Safari/537.36 Edg/121.0.0.0" etag="RPAMS3Gb7hIJi1JNB31g" version="23.1.2" type="device">
  <diagram name="Puslapis-1" id="rK1zgmhkSpsQMYemknY6">
    <mxGraphModel dx="1002" dy="569" grid="1" gridSize="10" guides="1" tooltips="1" connect="1" arrows="1" fold="1" page="1" pageScale="1" pageWidth="827" pageHeight="1169" math="0" shadow="0">
      <root>
        <mxCell id="0" />
        <mxCell id="1" parent="0" />
        <mxCell id="pZjq4D1PFu6n9ogiyO5Q-3" value="" style="verticalLabelPosition=bottom;verticalAlign=top;html=1;shape=mxgraph.basic.rect;fillColor2=none;strokeWidth=1;size=20;indent=5;" parent="1" vertex="1">
          <mxGeometry x="19" y="30" width="790" height="120" as="geometry" />
        </mxCell>
        <mxCell id="pZjq4D1PFu6n9ogiyO5Q-4" value="" style="strokeWidth=2;html=1;shape=mxgraph.flowchart.start_2;whiteSpace=wrap;" parent="1" vertex="1">
          <mxGeometry x="60" y="170" width="160" height="150" as="geometry" />
        </mxCell>
        <mxCell id="pZjq4D1PFu6n9ogiyO5Q-6" value="" style="strokeWidth=2;html=1;shape=mxgraph.flowchart.start_2;whiteSpace=wrap;" parent="1" vertex="1">
          <mxGeometry x="334" y="170" width="160" height="150" as="geometry" />
        </mxCell>
        <mxCell id="pZjq4D1PFu6n9ogiyO5Q-7" value="" style="strokeWidth=2;html=1;shape=mxgraph.flowchart.start_2;whiteSpace=wrap;" parent="1" vertex="1">
          <mxGeometry x="610" y="170" width="160" height="150" as="geometry" />
        </mxCell>
        <mxCell id="pZjq4D1PFu6n9ogiyO5Q-10" value="" style="rounded=0;whiteSpace=wrap;html=1;" parent="1" vertex="1">
          <mxGeometry x="40" y="360" width="230" height="230" as="geometry" />
        </mxCell>
        <mxCell id="pZjq4D1PFu6n9ogiyO5Q-11" value="" style="rounded=0;whiteSpace=wrap;html=1;" parent="1" vertex="1">
          <mxGeometry x="100" y="680" width="620" height="180" as="geometry" />
        </mxCell>
        <mxCell id="pZjq4D1PFu6n9ogiyO5Q-12" value="" style="rounded=0;whiteSpace=wrap;html=1;" parent="1" vertex="1">
          <mxGeometry x="580" y="360" width="220" height="230" as="geometry" />
        </mxCell>
        <mxCell id="pZjq4D1PFu6n9ogiyO5Q-13" value="" style="rounded=0;whiteSpace=wrap;html=1;" parent="1" vertex="1">
          <mxGeometry x="300" y="360" width="240" height="230" as="geometry" />
        </mxCell>
        <mxCell id="qxeDoGE2GSS0azDASh7V-1" value="" style="rounded=1;whiteSpace=wrap;html=1;" vertex="1" parent="1">
          <mxGeometry x="354" y="620" width="120" height="30" as="geometry" />
        </mxCell>
        <mxCell id="qxeDoGE2GSS0azDASh7V-2" value="" style="rounded=1;whiteSpace=wrap;html=1;" vertex="1" parent="1">
          <mxGeometry x="310" y="890" width="220" height="30" as="geometry" />
        </mxCell>
        <mxCell id="qxeDoGE2GSS0azDASh7V-3" value="" style="rounded=0;whiteSpace=wrap;html=1;" vertex="1" parent="1">
          <mxGeometry x="5" y="960" width="810" height="210" as="geometry" />
        </mxCell>
      </root>
    </mxGraphModel>
  </diagram>
</mxfile>
